<svg id="Layer_1" xmlns="http://www.w3.org/2000/svg" viewBox="0 0 128 128"><style>.st0{fill:#fff}.st1{fill:#316481}.st2{fill:#57493e}.st3,.st4{fill:none;stroke:#231f20;stroke-width:4;stroke-linecap:round;stroke-miterlimit:10}</style><g id="XMLID_1_"><g id="XMLID_11_"><path id="XMLID_16_" class="st0" d="M112 108v12c0 3.3-2.7 6-6 6H22v-12h84c3.3 0 6-2.7 6-6z"/><path id="XMLID_14_" class="st1" d="M112 8v100c0 3.3-2.7 6-6 6H28V2h78c3.3 0 6 2.7 6 6z"/><path id="XMLID_13_" class="st2" d="M28 2v112h-6c-3.3 0-6 2.7-6 6V8c0-3.3 2.7-6 6-6h6z"/><path id="XMLID_9_" class="st0" d="M22 114v12c-3.3 0-6-2.7-6-6s2.7-6 6-6z"/></g><g id="XMLID_12_"><path id="XMLID_21_" class="st3" d="M16 120V8c0-3.3 2.7-6 6-6h84c3.3 0 6 2.7 6 6v112c0 3.3-2.7 6-6 6H22"/><path id="XMLID_19_" class="st3" d="M22 114c-3.3 0-6 2.7-6 6s2.7 6 6 6"/><path id="XMLID_18_" class="st3" d="M22 114h84"/><path id="XMLID_17_" class="st3" d="M106 114c3.3 0 6-2.7 6-6"/><path id="XMLID_15_" class="st4" d="M28 2v112"/></g></g></svg>